<mxfile host="app.diagrams.net" modified="2021-01-07T02:12:05.646Z" agent="5.0 (Windows)" etag="-uknCvQfTXgrQ9og1CSV" version="14.1.8" type="github">
  <diagram id="vHm6seCwGt2K6HgO-WKn" name="Page-1">
    <mxGraphModel dx="1422" dy="763" grid="1" gridSize="10" guides="1" tooltips="1" connect="1" arrows="1" fold="1" page="1" pageScale="1" pageWidth="827" pageHeight="1169" math="0" shadow="0">
      <root>
        <mxCell id="0" />
        <mxCell id="1" parent="0" />
        <mxCell id="K4pwoH2FoX02L7k3tl2P-1" value="" style="rounded=0;whiteSpace=wrap;html=1;" parent="1" vertex="1">
          <mxGeometry width="480" height="270" as="geometry" />
        </mxCell>
        <mxCell id="K4pwoH2FoX02L7k3tl2P-5" value="cloud" style="whiteSpace=wrap;html=1;aspect=fixed;" parent="1" vertex="1">
          <mxGeometry x="4" y="234" width="32" height="32" as="geometry" />
        </mxCell>
        <mxCell id="K4pwoH2FoX02L7k3tl2P-7" value="exit" style="whiteSpace=wrap;html=1;aspect=fixed;" parent="1" vertex="1">
          <mxGeometry x="4" y="4" width="32" height="32" as="geometry" />
        </mxCell>
        <mxCell id="K4pwoH2FoX02L7k3tl2P-8" value="4" style="text;html=1;strokeColor=none;fillColor=none;align=center;verticalAlign=middle;whiteSpace=wrap;rounded=0;" parent="1" vertex="1">
          <mxGeometry y="36" width="40" height="20" as="geometry" />
        </mxCell>
        <mxCell id="K4pwoH2FoX02L7k3tl2P-9" value="left" style="whiteSpace=wrap;html=1;aspect=fixed;" parent="1" vertex="1">
          <mxGeometry x="4" y="119" width="32" height="32" as="geometry" />
        </mxCell>
        <mxCell id="K4pwoH2FoX02L7k3tl2P-10" value="right" style="whiteSpace=wrap;html=1;aspect=fixed;" parent="1" vertex="1">
          <mxGeometry x="444" y="119" width="32" height="32" as="geometry" />
        </mxCell>
        <mxCell id="K4pwoH2FoX02L7k3tl2P-12" value="exit" style="whiteSpace=wrap;html=1;aspect=fixed;" parent="1" vertex="1">
          <mxGeometry x="444" y="4" width="32" height="32" as="geometry" />
        </mxCell>
        <mxCell id="K4pwoH2FoX02L7k3tl2P-13" value="home" style="whiteSpace=wrap;html=1;aspect=fixed;" parent="1" vertex="1">
          <mxGeometry x="444" y="4" width="32" height="32" as="geometry" />
        </mxCell>
        <mxCell id="K4pwoH2FoX02L7k3tl2P-14" value="exit" style="whiteSpace=wrap;html=1;aspect=fixed;" parent="1" vertex="1">
          <mxGeometry x="4" y="4" width="32" height="32" as="geometry" />
        </mxCell>
        <mxCell id="K4pwoH2FoX02L7k3tl2P-15" value="circle-x" style="whiteSpace=wrap;html=1;aspect=fixed;" parent="1" vertex="1">
          <mxGeometry x="444" y="234" width="32" height="32" as="geometry" />
        </mxCell>
        <mxCell id="K4pwoH2FoX02L7k3tl2P-17" value="0" style="text;html=1;strokeColor=none;fillColor=none;align=center;verticalAlign=middle;whiteSpace=wrap;rounded=0;" parent="1" vertex="1">
          <mxGeometry x="440" y="36" width="40" height="20" as="geometry" />
        </mxCell>
        <mxCell id="OHM6dusz1guYh98k8w44-1" value="11" style="text;html=1;strokeColor=none;fillColor=none;align=center;verticalAlign=middle;whiteSpace=wrap;rounded=0;" vertex="1" parent="1">
          <mxGeometry y="270" width="40" height="20" as="geometry" />
        </mxCell>
      </root>
    </mxGraphModel>
  </diagram>
</mxfile>
